<?xml version="1.0" encoding="utf-8"?>
<!-- Generator: Adobe Illustrator 20.1.0, SVG Export Plug-In . SVG Version: 6.00 Build 0)  -->
<svg version="1.1" id="Слой_1" xmlns="http://www.w3.org/2000/svg" xmlns:xlink="http://www.w3.org/1999/xlink" x="0px" y="0px"
	 viewBox="0 0 428.5 11.5" style="enable-background:new 0 0 428.5 11.5;" xml:space="preserve">
<style type="text/css">
	.st0{fill:none;stroke:#3E3E3E;stroke-width:2;stroke-miterlimit:10;}
	.st1{fill:none;stroke:#3E3E3E;stroke-width:2;stroke-miterlimit:10;stroke-dasharray:15.8997,11.9248;}
	.st2{fill:#3E3E3E;}
</style>
<g>
	<line x1="427.3" y1="5.8" x2="0" y2="5.8"/>
	<g>
		<line class="st0" x1="426" y1="5.8" x2="418" y2="5.8"/>
		<line class="st1" x1="406" y1="5.8" x2="22.4" y2="5.8"/>
		<line class="st0" x1="16.5" y1="5.8" x2="8.5" y2="5.8"/>
		<g>
			<path class="st2" d="M418.4,0.5c-0.2,0.3-0.1,0.6,0.2,0.8l7.1,4.5l-7.1,4.5c-0.3,0.2-0.3,0.5-0.2,0.8c0.2,0.3,0.5,0.3,0.8,0.2
				l7.8-5c0.2-0.1,0.3-0.3,0.3-0.5s-0.1-0.4-0.3-0.5l-7.8-5c-0.1-0.1-0.2-0.1-0.3-0.1C418.7,0.3,418.5,0.4,418.4,0.5z"/>
		</g>
		<g>
			<polygon class="st2" points="8.9,6.4 6.3,11 5,11 7.7,6.4 6.4,6.4 3.8,11 2.5,11 5.2,6.4 3.9,6.4 1.3,11 0,11 2.7,6.4 1.4,6.4 
				1.4,5.3 2.7,5.3 0,0.6 1.3,0.6 3.9,5.3 5.2,5.3 2.5,0.6 3.8,0.6 6.4,5.3 7.7,5.3 5,0.6 6.3,0.6 8.9,5.3 			"/>
		</g>
	</g>
</g>
</svg>
