<?xml version="1.0" encoding="utf-8"?>
<!-- Generator: Adobe Illustrator 20.1.0, SVG Export Plug-In . SVG Version: 6.00 Build 0)  -->
<svg version="1.1" id="Слой_1" xmlns="http://www.w3.org/2000/svg" xmlns:xlink="http://www.w3.org/1999/xlink" x="0px" y="0px"
	 viewBox="0 0 64 64" style="enable-background:new 0 0 64 64;" xml:space="preserve">
<style type="text/css">
	.st0{fill:#75BAA8;}
	.st1{opacity:0.2;}
	.st2{fill:#242122;}
	.st3{fill:#DFDFD0;}
	.st4{fill:#BF5E5E;}
	.st5{fill:#DA9862;}
	.st6{fill:#EFCC89;}
	.st7{fill:#4D5C71;}
	.st8{fill:#FFFFFF;}
</style>
<g>
	<circle class="st0" cx="32" cy="32" r="32"/>
</g>
<g>
	<g>
		<g class="st1">
			<path class="st2" d="M28.2,23v-9h-13c-1.7,0-3,1.3-3,3v34c0,1.7,1.3,3,3,3h22c1.7,0,3-1.3,3-3V26h-9C29.5,26,28.2,24.7,28.2,23z"
				/>
		</g>
		<g>
			<path class="st3" d="M37.2,12h-9h-13c-1.7,0-3,1.3-3,3v25v9c0,1.7,1.3,3,3,3h9h13c1.7,0,3-1.3,3-3V24v-9
				C40.2,13.3,38.8,12,37.2,12z"/>
		</g>
	</g>
	<g class="st1">
		<rect x="16.2" y="19" class="st2" width="10" height="2"/>
	</g>
	<g class="st1">
		<rect x="16.2" y="35" class="st2" width="20" height="2"/>
	</g>
	<g class="st1">
		<rect x="16.2" y="30" class="st2" width="20" height="2"/>
	</g>
	<g class="st1">
		<rect x="16.2" y="25" class="st2" width="20" height="2"/>
	</g>
	<g class="st1">
		<rect x="16.2" y="40" class="st2" width="20" height="2"/>
	</g>
	<g class="st1">
		<rect x="16.2" y="45" class="st2" width="20" height="2"/>
	</g>
</g>
<g class="st1">
	<path class="st2" d="M55.3,21.9l-7.1-7.1c-1.2-1.2-3.1-1.2-4.2,0l-3.5,3.5L39.7,19L23.5,35.3l-1.9,9.4l-0.9,4.7l4.7-0.9l9.4-1.9
		L51,30.3l0.7-0.7l3.5-3.5C56.5,24.9,56.5,23,55.3,21.9z"/>
</g>
<g>
	<path class="st4" d="M51,28.4c-1.2,1.2-3.1,1.2-4.2,0l-7.1-7.1c-1.2-1.2-1.2-3.1,0-4.2l4.2-4.2c1.2-1.2,3.1-1.2,4.2,0l7.1,7.1
		c1.2,1.2,1.2,3.1,0,4.2L51,28.4z"/>
</g>
<g>
	<rect x="21.4" y="24.3" transform="matrix(0.7071 -0.7071 0.7071 0.7071 -8.8334 31.3016)" class="st5" width="24" height="4"/>
</g>
<g>
	<rect x="23.9" y="27.3" transform="matrix(0.7071 -0.7071 0.7071 0.7071 -11.2979 35.2514)" class="st6" width="26" height="8"/>
</g>
<g>
	<rect x="29.9" y="32.8" transform="matrix(0.7071 -0.7071 0.7071 0.7071 -12.3482 39.7869)" class="st5" width="24" height="4"/>
</g>
<g>
	<g>
		<polygon class="st7" points="20.6,47.5 25.4,46.6 21.6,42.8 		"/>
	</g>
	<g>
		<polygon class="st8" points="23.5,33.4 21.6,42.8 25.4,46.6 34.8,44.7 33.4,43.3 33.4,40.5 27.7,40.5 27.7,34.8 24.9,34.8 		"/>
	</g>
</g>
</svg>
