<?xml version="1.0" encoding="utf-8"?>
<!-- Generator: Adobe Illustrator 20.1.0, SVG Export Plug-In . SVG Version: 6.00 Build 0)  -->
<svg version="1.1" id="Слой_2" xmlns="http://www.w3.org/2000/svg" xmlns:xlink="http://www.w3.org/1999/xlink" x="0px" y="0px"
	 viewBox="0 0 235 233.7" style="enable-background:new 0 0 235 233.7;" xml:space="preserve">
<style type="text/css">
	.st0{fill:#FFEA01;stroke:#FFFFFF;stroke-width:5;stroke-miterlimit:10;}
	.st1{fill:#FF0000;stroke:#FFFFFF;stroke-width:5;stroke-miterlimit:10;}
	.st2{fill:none;stroke:#FFFFFF;stroke-width:5;stroke-miterlimit:10;}
</style>
<g>
	<path class="st0" d="M117.7,76.5c13.6,0,25.7,6.6,33.3,16.7c3.8-4,8.5-12.8,12.6-23.3c9.8-25.3,16.2-61-0.9-66.9
		c-16.9-5.8-35.6,22.9-46.1,47.8c-4.5,10.6-7.5,20.5-8.3,26.8C111.3,76.9,114.5,76.5,117.7,76.5z"/>
	<path class="st1" d="M108.3,77.6c0.8-6.3,3.8-16.2,8.3-26.8C105.3,26.1,84.2-3.4,68,4.8c-16.1,8.1-8.3,41.9,2.4,66.9
		c10.1,4.3,18.4,9.2,22.4,13.1C97.4,81.4,102.6,78.9,108.3,77.6z"/>
	<path class="st2" d="M150.9,93.2c5.2,6.9,8.2,15.5,8.2,24.8c0,1.7-0.1,3.3-0.3,5c5.2-0.1,13.6-1.9,22.6-5.6
		c25.4-10.4,57.6-31.8,49.6-48.7c-7.8-16.4-42.2-9.1-67.4,1.1C159.5,80.4,154.8,89.2,150.9,93.2z"/>
	<path class="st2" d="M92.8,84.8c-4-3.9-12.4-8.8-22.4-13.1C45.5,60.9,10,53.2,3.5,70.1c-6.4,16.6,21,36,45.3,47.4
		c10.5-5,22.3-8.9,28.5-9.5C79.7,98.6,85.3,90.4,92.8,84.8z"/>
	<path class="st2" d="M181.4,117.4c-9,3.7-17.4,5.4-22.6,5.6c-1.4,12.1-8.1,22.7-17.7,29.3c3.8,3.8,12.2,8.5,22.5,12.8
		c25.2,10.3,61.4,17.5,67.6,0.3C237.6,147.8,206.8,128,181.4,117.4z"/>
	<path class="st2" d="M76.2,118c0-3.4,0.4-6.7,1.2-9.9c-6.3,0.6-18,4.5-28.5,9.5C24.5,129-3.5,149.6,4.5,165.4
		c7.9,15.7,40.2,8.7,64.9-1.6c4.1-10.2,8.8-20.2,12.7-24.5C78.3,133.1,76.2,125.8,76.2,118z"/>
	<path class="st2" d="M141.2,152.2c-6.7,4.6-14.8,7.3-23.5,7.3c-3,0-6-0.3-8.8-0.9c0.4,5.7,3.2,14.8,7.5,24.6
		c10.8,24.8,31.2,54.4,47.4,46.6c15.8-7.6,9.6-39.8-0.1-64.8C153.4,160.8,145,156,141.2,152.2z"/>
	<path class="st2" d="M82.1,139.4c-3.8,4.2-8.5,14.2-12.7,24.5c-10.2,25.2-17.1,61,0,67.1c17,6.1,36.1-22.9,46.9-47.8
		c-4.3-9.8-7-18.8-7.5-24.6C97.5,156.1,87.9,149,82.1,139.4z"/>
</g>
</svg>
